<svg width="194" height="184" viewBox="0 0 194 184" fill="none" xmlns="http://www.w3.org/2000/svg">
<rect x="85.0449" y="103.559" width="23.9083" height="103.559" transform="rotate(-180 85.0449 103.559)" fill="#53A8FE"/>
<rect x="85.0449" y="184" width="23.9083" height="57.0378" transform="rotate(-180 85.0449 184)" fill="#53A8FE"/>
<rect y="102.396" width="23.9083" height="103.559" transform="rotate(-90 0 102.396)" fill="#53A8FE"/>
<rect x="136.602" y="102.396" width="23.9083" height="57.0378" transform="rotate(-90 136.602 102.396)" fill="#53A8FE"/>
<rect x="25.998" y="32.8945" width="23.9083" height="103.559" transform="rotate(-45 25.998 32.8945)" fill="#53A8FE"/>
<rect x="122.584" y="129.48" width="23.9083" height="57.0379" transform="rotate(-45 122.584 129.48)" fill="#53A8FE"/>
<rect x="144.113" y="16.0352" width="23.9083" height="103.559" transform="rotate(45 144.113 16.0352)" fill="#53A8FE"/>
<rect x="47.5254" y="112.621" width="23.9083" height="57.0379" transform="rotate(45 47.5254 112.621)" fill="#53A8FE"/>
<path d="M57.666 102.396L97 61.2773L136.334 102.396H57.666Z" fill="white"/>
</svg>
